<svg width="129" height="35" viewBox="0 0 129 35" fill="none" xmlns="http://www.w3.org/2000/svg">
<g filter="url(#filter0_d_1027_962)">
<rect x="5.00012" y="0.000488281" width="118.75" height="25" rx="12.5" fill="#6F6E8D"/>
</g>
<path d="M19.5332 5.16174C19.1849 5.16174 18.8503 5.23507 18.5295 5.38174C18.2178 5.5284 17.9657 5.73924 17.7732 6.01424C17.5257 6.37174 17.3149 6.8209 17.1407 7.36174C16.9757 7.8934 16.8932 8.48465 16.8932 9.13549C16.8932 9.78632 16.962 10.3959 17.0995 10.9642C17.237 11.5326 17.4295 12.0092 17.677 12.3942C17.8787 12.7059 18.1491 12.9351 18.4882 13.0817C18.8366 13.2284 19.2262 13.3017 19.657 13.3017C21.197 13.3017 22.0999 12.5272 22.3657 10.978H23.5345C23.0853 13.2513 21.692 14.388 19.3545 14.388C18.0895 14.388 17.0812 14.0213 16.3295 13.288C15.8803 12.848 15.5366 12.2934 15.2982 11.6242C15.0599 10.9551 14.9407 10.2126 14.9407 9.39674C14.9407 8.4709 15.092 7.63215 15.3945 6.88049C15.697 6.12882 16.1232 5.5284 16.6732 5.07924C17.3699 4.50174 18.2912 4.21299 19.437 4.21299C20.0053 4.21299 20.4682 4.28632 20.8257 4.43299C21.1832 4.57965 21.5362 4.8409 21.8845 5.21674L22.1595 4.35049H23.3282V7.59549H22.077C21.9487 6.78882 21.6599 6.18382 21.2107 5.78049C20.7707 5.36799 20.2116 5.16174 19.5332 5.16174ZM31.6091 10.538C31.6091 11.1247 31.522 11.6792 31.3478 12.2017C31.1828 12.7151 30.9399 13.1459 30.6191 13.4942C30.3166 13.8151 29.9499 14.0442 29.5191 14.1817C29.0974 14.3192 28.6024 14.388 28.0341 14.388C27.4657 14.388 26.9662 14.3192 26.5353 14.1817C26.1137 14.0442 25.7516 13.8151 25.4491 13.4942C25.1282 13.1459 24.8807 12.7151 24.7066 12.2017C24.5416 11.6792 24.4591 11.1247 24.4591 10.538C24.4591 9.95132 24.5416 9.39674 24.7066 8.87424C24.8807 8.35174 25.1282 7.9209 25.4491 7.58174C25.7516 7.2609 26.1137 7.03174 26.5353 6.89424C26.9662 6.75674 27.4657 6.68799 28.0341 6.68799C28.6024 6.68799 29.0974 6.75674 29.5191 6.89424C29.9499 7.03174 30.3166 7.2609 30.6191 7.58174C30.9399 7.9209 31.1828 8.35174 31.3478 8.87424C31.522 9.39674 31.6091 9.95132 31.6091 10.538ZM26.7828 12.9167C26.9112 13.1001 27.0762 13.2376 27.2778 13.3292C27.4887 13.4209 27.7407 13.4667 28.0341 13.4667C28.3274 13.4667 28.5795 13.4209 28.7903 13.3292C29.0012 13.2376 29.1662 13.1001 29.2853 12.9167C29.5787 12.4676 29.7253 11.6747 29.7253 10.538C29.7253 9.96049 29.6887 9.47465 29.6153 9.08049C29.542 8.68632 29.432 8.37924 29.2853 8.15924C29.1662 7.9759 29.0012 7.8384 28.7903 7.74674C28.5795 7.65507 28.3274 7.60924 28.0341 7.60924C27.7407 7.60924 27.4887 7.65507 27.2778 7.74674C27.0762 7.8384 26.9112 7.9759 26.7828 8.15924C26.4895 8.6084 26.3428 9.40132 26.3428 10.538C26.3428 11.6747 26.4895 12.4676 26.7828 12.9167ZM33.5994 13.2192V7.85674L32.5406 7.59549V6.82549H34.9331L35.2356 8.20049H35.2906C35.5656 7.73299 35.9369 7.36632 36.4044 7.10049C36.8719 6.82549 37.3715 6.68799 37.9031 6.68799C38.664 6.68799 39.2277 6.93549 39.5944 7.43049C39.7777 7.68715 39.906 8.04924 39.9794 8.51674C40.0619 8.97507 40.1031 9.5984 40.1031 10.3867V13.2192L41.1619 13.4805V14.2505H37.4356V13.4805L38.3569 13.2192V10.5655C38.3569 10.0155 38.3385 9.58924 38.3019 9.28674C38.2744 8.97507 38.2194 8.72757 38.1369 8.54424C38.036 8.3059 37.8985 8.1409 37.7244 8.04924C37.5502 7.95757 37.344 7.91174 37.1056 7.91174C36.6565 7.91174 36.276 8.0584 35.9644 8.35174C35.5885 8.70007 35.3823 9.23632 35.3456 9.96049V13.2192L36.2669 13.4805V14.2505H32.5406V13.4805L33.5994 13.2192ZM41.4483 7.71924V7.01799L42.7958 6.82549L42.9608 5.12049L44.5283 4.90049V6.82549H46.2883V7.71924H44.5283V12.2155C44.5283 12.5272 44.5329 12.7426 44.542 12.8617C44.5512 12.9717 44.5695 13.0634 44.597 13.1367C44.6245 13.1917 44.6749 13.233 44.7483 13.2605C44.8216 13.288 44.9408 13.3017 45.1058 13.3017H46.0683V13.9067C45.5366 14.0717 45.0645 14.1909 44.652 14.2642C44.2487 14.3467 43.9279 14.388 43.6895 14.388C43.277 14.388 43.0112 14.2184 42.892 13.8792C42.8554 13.7692 42.8279 13.6272 42.8095 13.453C42.7912 13.2788 42.782 13.0222 42.782 12.683V7.71924H41.4483ZM46.814 12.628C46.814 11.8672 47.1623 11.2805 47.859 10.868C48.5557 10.4463 49.6511 10.1209 51.1452 9.89174C51.1086 9.4334 51.0582 9.08049 50.994 8.83299C50.9298 8.58549 50.8473 8.37465 50.7465 8.20049C50.6273 7.98965 50.4807 7.82007 50.3065 7.69174C50.1323 7.5634 49.9123 7.49924 49.6465 7.49924C49.454 7.49924 49.2752 7.5359 49.1102 7.60924C48.9544 7.68257 48.849 7.7834 48.794 7.91174C48.9223 7.9759 49.0094 8.07674 49.0552 8.21424C49.1102 8.35174 49.1377 8.4709 49.1377 8.57174C49.1377 8.8009 49.0369 9.00715 48.8352 9.19049C48.6336 9.36465 48.3907 9.45174 48.1065 9.45174C47.8223 9.45174 47.5977 9.36007 47.4327 9.17674C47.2677 8.98424 47.1852 8.7459 47.1852 8.46174C47.1852 8.0859 47.3182 7.76507 47.584 7.49924C47.8498 7.2334 48.189 7.03174 48.6015 6.89424C49.014 6.75674 49.4311 6.68799 49.8527 6.68799C50.2836 6.68799 50.6686 6.75215 51.0077 6.88049C51.3561 6.99965 51.6357 7.1509 51.8465 7.33424C52.5707 7.9759 52.9327 8.9934 52.9327 10.3867V12.1742C52.9327 12.6234 52.9602 12.9351 53.0152 13.1092C53.0794 13.2834 53.2123 13.3705 53.414 13.3705H54.0327V13.9892C53.1894 14.2551 52.5523 14.388 52.1215 14.388C51.819 14.388 51.6173 14.2872 51.5165 14.0855C51.4157 13.8838 51.3652 13.4851 51.3652 12.8892H51.3102C51.0261 13.3567 50.6502 13.7234 50.1827 13.9892C49.7152 14.2551 49.2111 14.388 48.6702 14.388C48.0927 14.388 47.639 14.2322 47.309 13.9205C46.979 13.6088 46.814 13.178 46.814 12.628ZM49.509 13.3842C49.7015 13.3842 49.9123 13.3201 50.1415 13.1917C50.3798 13.0634 50.5861 12.8847 50.7602 12.6555C50.8611 12.5272 50.9573 12.3438 51.049 12.1055C51.1407 11.8672 51.1865 11.583 51.1865 11.253C51.1865 11.143 51.1819 11.0192 51.1727 10.8817C51.1636 10.7442 51.1498 10.6159 51.1315 10.4967C50.499 10.6342 49.9994 10.7809 49.6327 10.9367C49.2752 11.0926 49.0186 11.2805 48.8627 11.5005C48.7161 11.7113 48.6427 11.9726 48.6427 12.2842C48.6427 12.6784 48.7344 12.9626 48.9177 13.1367C49.1011 13.3017 49.2982 13.3842 49.509 13.3842ZM58.0729 6.68799C58.6412 6.68799 59.1454 6.77965 59.5854 6.96299C60.0254 7.13715 60.3691 7.38465 60.6166 7.70549C60.8733 8.02632 61.0016 8.40215 61.0016 8.83299C61.0016 9.24549 60.8916 9.56174 60.6716 9.78174C60.4516 9.99257 60.1812 10.098 59.8604 10.098C59.5029 10.098 59.2508 9.98799 59.1041 9.76799C58.9666 9.54799 58.8979 9.3234 58.8979 9.09424C58.8979 8.86507 58.9529 8.66799 59.0629 8.50299C59.182 8.32882 59.3562 8.20965 59.5854 8.14549C59.4662 7.98049 59.2737 7.84757 59.0079 7.74674C58.7512 7.6459 58.4625 7.59549 58.1416 7.59549C57.5641 7.59549 57.115 7.80632 56.7941 8.22799C56.4733 8.64965 56.3129 9.4059 56.3129 10.4967C56.3129 10.9917 56.345 11.3813 56.4091 11.6655C56.4733 11.9497 56.5604 12.1972 56.6704 12.408C56.817 12.6738 57.005 12.8847 57.2341 13.0405C57.4633 13.1872 57.7566 13.2605 58.1141 13.2605C58.49 13.2605 58.8841 13.1734 59.2966 12.9992C59.7183 12.8159 60.0666 12.5363 60.3416 12.1605L61.0841 12.738C60.6625 13.3247 60.1675 13.7463 59.5991 14.003C59.0308 14.2597 58.4258 14.388 57.7841 14.388C57.1058 14.388 56.5283 14.2597 56.0516 14.003C55.5841 13.7372 55.2175 13.3522 54.9516 12.848C54.6216 12.2338 54.4566 11.4867 54.4566 10.6067C54.4566 9.80924 54.5987 9.11715 54.8829 8.53049C55.1762 7.94382 55.5933 7.49007 56.1341 7.16924C56.675 6.8484 57.3212 6.68799 58.0729 6.68799ZM61.5227 7.71924V7.01799L62.8702 6.82549L63.0352 5.12049L64.6027 4.90049V6.82549H66.3627V7.71924H64.6027V12.2155C64.6027 12.5272 64.6073 12.7426 64.6165 12.8617C64.6256 12.9717 64.644 13.0634 64.6715 13.1367C64.699 13.1917 64.7494 13.233 64.8227 13.2605C64.8961 13.288 65.0152 13.3017 65.1802 13.3017H66.1427V13.9067C65.6111 14.0717 65.139 14.1909 64.7265 14.2642C64.3231 14.3467 64.0023 14.388 63.764 14.388C63.3515 14.388 63.0856 14.2184 62.9665 13.8792C62.9298 13.7692 62.9023 13.6272 62.884 13.453C62.8656 13.2788 62.8565 13.0222 62.8565 12.683V7.71924H61.5227ZM73.5985 10.7305H68.7997C68.7997 11.3538 68.8914 11.8717 69.0747 12.2842C69.2214 12.5959 69.4185 12.8388 69.666 13.013C69.9135 13.178 70.2205 13.2605 70.5872 13.2605C70.9905 13.2605 71.3893 13.1688 71.7835 12.9855C72.1868 12.8022 72.5305 12.5272 72.8147 12.1605L73.5572 12.738C73.2364 13.1963 72.801 13.5859 72.251 13.9067C71.7101 14.2276 71.041 14.388 70.2435 14.388C69.5743 14.388 68.9968 14.2551 68.511 13.9892C68.0251 13.7142 67.6539 13.3155 67.3972 12.793C67.2597 12.5088 67.1589 12.1926 67.0947 11.8442C67.0305 11.4959 66.9985 11.1201 66.9985 10.7167C66.9985 9.4334 67.2918 8.4434 67.8785 7.74674C68.4743 7.0409 69.313 6.68799 70.3947 6.68799C71.3939 6.68799 72.1822 6.98132 72.7597 7.56799C73.3464 8.14549 73.6397 8.94757 73.6397 9.97424C73.6397 10.0751 73.6351 10.1759 73.626 10.2767C73.626 10.3684 73.6168 10.5197 73.5985 10.7305ZM70.3672 7.63674C69.423 7.63674 68.9051 8.37465 68.8135 9.85049H71.8385V9.49299C71.8385 8.89715 71.7055 8.43882 71.4397 8.11799C71.183 7.79715 70.8255 7.63674 70.3672 7.63674ZM79.6851 13.2742L79.9601 11.4042H81.1563V14.2505H74.6526V13.2742L78.9563 7.80174H76.3576L76.0276 9.60299H74.8313V6.82549H81.1013V7.80174L76.8113 13.2742H79.6851ZM82.6086 11.1017V9.76799H86.0598V11.1017H82.6086ZM88.2368 13.2192V7.85674L87.1781 7.59549V6.82549H89.5706L89.8731 8.20049H89.9281C90.1939 7.74215 90.5468 7.37549 90.9868 7.10049C91.436 6.82549 91.9127 6.68799 92.4168 6.68799C92.7927 6.68799 93.1272 6.76132 93.4206 6.90799C93.7139 7.04549 93.9293 7.21965 94.0668 7.43049C94.2135 7.65965 94.3327 7.96215 94.4243 8.33799C94.7177 7.82465 95.0981 7.42132 95.5656 7.12799C96.0331 6.83465 96.5327 6.68799 97.0643 6.68799C97.431 6.68799 97.761 6.76132 98.0543 6.90799C98.3477 7.04549 98.5722 7.23799 98.7281 7.48549C98.8381 7.65965 98.9252 7.88424 98.9893 8.15924C99.0535 8.43424 99.0993 8.79174 99.1268 9.23174C99.1543 9.66257 99.1681 10.2126 99.1681 10.8817V13.2192L100.227 13.4805V14.2505H96.5006V13.4805L97.4218 13.2192V10.5655C97.4218 9.96965 97.4035 9.52965 97.3668 9.24549C97.3302 8.95215 97.2752 8.7184 97.2018 8.54424C97.1102 8.32424 96.9864 8.17299 96.8306 8.09049C96.6839 7.99882 96.5281 7.95299 96.3631 7.95299C96.1339 7.95299 95.9231 7.98507 95.7306 8.04924C95.5472 8.1134 95.3685 8.2234 95.1943 8.37924C94.9927 8.56257 94.8414 8.77799 94.7406 9.02549C94.6489 9.27299 94.5939 9.58465 94.5756 9.96049V13.2192L95.4968 13.4805V14.2505H91.9081V13.4805L92.8293 13.2192V10.5655C92.8293 9.96965 92.811 9.52965 92.7743 9.24549C92.7377 8.95215 92.6827 8.7184 92.6093 8.54424C92.5177 8.32424 92.3939 8.17299 92.2381 8.09049C92.0914 7.99882 91.9356 7.95299 91.7706 7.95299C91.5414 7.95299 91.3306 7.98507 91.1381 8.04924C90.9547 8.1134 90.776 8.2234 90.6018 8.37924C90.4002 8.56257 90.2489 8.77799 90.1481 9.02549C90.0564 9.27299 90.0014 9.58465 89.9831 9.96049V13.2192L90.9043 13.4805V14.2505H87.1781V13.4805L88.2368 13.2192ZM108.093 10.538C108.093 11.1247 108.006 11.6792 107.832 12.2017C107.667 12.7151 107.424 13.1459 107.103 13.4942C106.801 13.8151 106.434 14.0442 106.003 14.1817C105.582 14.3192 105.087 14.388 104.518 14.388C103.95 14.388 103.451 14.3192 103.02 14.1817C102.598 14.0442 102.236 13.8151 101.933 13.4942C101.613 13.1459 101.365 12.7151 101.191 12.2017C101.026 11.6792 100.943 11.1247 100.943 10.538C100.943 9.95132 101.026 9.39674 101.191 8.87424C101.365 8.35174 101.613 7.9209 101.933 7.58174C102.236 7.2609 102.598 7.03174 103.02 6.89424C103.451 6.75674 103.95 6.68799 104.518 6.68799C105.087 6.68799 105.582 6.75674 106.003 6.89424C106.434 7.03174 106.801 7.2609 107.103 7.58174C107.424 7.9209 107.667 8.35174 107.832 8.87424C108.006 9.39674 108.093 9.95132 108.093 10.538ZM103.267 12.9167C103.396 13.1001 103.561 13.2376 103.762 13.3292C103.973 13.4209 104.225 13.4667 104.518 13.4667C104.812 13.4667 105.064 13.4209 105.275 13.3292C105.486 13.2376 105.651 13.1001 105.77 12.9167C106.063 12.4676 106.21 11.6747 106.21 10.538C106.21 9.96049 106.173 9.47465 106.1 9.08049C106.026 8.68632 105.916 8.37924 105.77 8.15924C105.651 7.9759 105.486 7.8384 105.275 7.74674C105.064 7.65507 104.812 7.60924 104.518 7.60924C104.225 7.60924 103.973 7.65507 103.762 7.74674C103.561 7.8384 103.396 7.9759 103.267 8.15924C102.974 8.6084 102.827 9.40132 102.827 10.538C102.827 11.6747 102.974 12.4676 103.267 12.9167ZM110.084 7.85674L109.025 7.59549V6.82549H111.83V13.2192L112.889 13.4805V14.2505H109.025V13.4805L110.084 13.2192V7.85674ZM109.933 4.73549C109.933 4.44215 110.02 4.20382 110.194 4.02049C110.377 3.83715 110.629 3.74549 110.95 3.74549C111.271 3.74549 111.523 3.83715 111.706 4.02049C111.89 4.20382 111.981 4.44215 111.981 4.73549C111.981 5.01965 111.89 5.2534 111.706 5.43674C111.532 5.62007 111.28 5.71174 110.95 5.71174C110.62 5.71174 110.368 5.62465 110.194 5.45049C110.02 5.26715 109.933 5.02882 109.933 4.73549Z" fill="white"/>
<defs>
<filter id="filter0_d_1027_962" x="0.00012207" y="0.000488281" width="128.75" height="35" filterUnits="userSpaceOnUse" color-interpolation-filters="sRGB">
<feFlood flood-opacity="0" result="BackgroundImageFix"/>
<feColorMatrix in="SourceAlpha" type="matrix" values="0 0 0 0 0 0 0 0 0 0 0 0 0 0 0 0 0 0 127 0" result="hardAlpha"/>
<feOffset dy="5"/>
<feGaussianBlur stdDeviation="2.5"/>
<feComposite in2="hardAlpha" operator="out"/>
<feColorMatrix type="matrix" values="0 0 0 0 0 0 0 0 0 0 0 0 0 0 0 0 0 0 0.25 0"/>
<feBlend mode="normal" in2="BackgroundImageFix" result="effect1_dropShadow_1027_962"/>
<feBlend mode="normal" in="SourceGraphic" in2="effect1_dropShadow_1027_962" result="shape"/>
</filter>
</defs>
</svg>
