<svg width="49" height="49" viewBox="0 0 49 49" fill="none" xmlns="http://www.w3.org/2000/svg">
<path d="M0.124572 24.377C0.157624 17.9119 2.75757 11.7247 7.35245 7.1766C11.9473 2.62846 18.1608 0.0919098 24.6259 0.124962C31.091 0.158013 37.2781 2.75796 41.8263 7.35284C46.3744 11.9477 48.911 18.1612 48.8779 24.6263C48.8449 31.0914 46.2449 37.2785 41.65 41.8267C37.0551 46.3748 30.8417 48.9114 24.3766 48.8783C17.9115 48.8453 11.7244 46.2453 7.17621 41.6504C2.62807 37.0555 0.0915199 30.8421 0.124572 24.377ZM22.9232 35.1586C22.9211 35.5627 23.0796 35.951 23.3639 36.2382C23.6482 36.5254 24.0349 36.6879 24.4389 36.69C24.843 36.692 25.2313 36.5335 25.5185 36.2492C25.8057 35.965 25.9682 35.5783 25.9703 35.1742L26.0605 17.5225L32.5661 24.098C32.8507 24.3855 33.2379 24.5482 33.6425 24.5503C34.0471 24.5524 34.4359 24.3936 34.7234 24.109C35.011 23.8244 35.1737 23.4372 35.1758 23.0326C35.1778 22.628 35.0191 22.2392 34.7345 21.9517L25.6399 12.7637C25.4992 12.6211 25.3316 12.5077 25.1469 12.4299C24.9622 12.3521 24.764 12.3116 24.5636 12.3106C24.3632 12.3095 24.1645 12.3481 23.9791 12.4239C23.7936 12.4998 23.6249 12.6115 23.4826 12.7527L14.2946 21.8472C14.0071 22.1318 13.8444 22.519 13.8423 22.9236C13.8402 23.3281 13.999 23.717 14.2836 24.0045C14.5682 24.2921 14.9554 24.4548 15.36 24.4568C15.7646 24.4589 16.1534 24.3002 16.4409 24.0155L23.0134 17.5069L22.9232 35.1586Z" fill="black"/>
</svg>
